<svg width="59" height="64" viewBox="0 0 59 64" fill="none" xmlns="http://www.w3.org/2000/svg">
<path fill-rule="evenodd" clip-rule="evenodd" d="M28.3751 0.0242526C24.1908 0.203283 20.3294 1.1804 16.6293 2.99655C13.6082 4.47933 11.0624 6.29955 8.70957 8.6588C3.49049 13.8923 0.468921 20.6763 0.0502756 28.1005C-0.0160245 29.2764 -0.0171069 56.399 0.0491462 56.9959C0.162972 58.022 0.412409 58.8563 0.877921 59.7682C1.26448 60.5255 1.77982 61.2153 2.43346 61.8502C3.50212 62.8881 4.75424 63.5479 6.30644 63.8908L6.80051 64H29.4574C51.1406 64 52.1333 63.9963 52.5582 63.9142C53.1691 63.7961 54.1835 63.4529 54.6977 63.1903C57.0384 61.9949 58.6004 59.7797 58.9369 57.1784C59.0022 56.673 59.0083 55.0402 58.993 42.1565C58.9807 31.7983 58.9606 27.5609 58.9223 27.2048C58.6821 24.9719 58.415 23.4887 57.9442 21.7729C55.5233 12.9509 49.0881 5.66923 40.6454 2.19846C36.8097 0.621589 32.4536 -0.150282 28.3751 0.0242526ZM27.9496 18.1539L27.9476 32.3396L27.1465 32.8838C26.7059 33.1831 26.0192 33.6517 25.6205 33.925C25.2218 34.1983 24.0322 35.0113 22.9769 35.7317C21.9215 36.4521 20.8887 37.1577 20.6817 37.2997C19.6634 37.9977 17.1925 39.6835 17.1408 39.7153C17.0938 39.7443 17.082 36.4787 17.082 23.4487V7.14586L17.5791 6.88477C20.758 5.2151 24.383 4.18758 27.8457 3.97476L27.9516 3.96822L27.9496 18.1539ZM32.1159 4.06463C35.1285 4.35425 38.2009 5.25343 41.0081 6.66698L41.9033 7.1178L41.9151 25.204L41.927 43.2902L40.5035 44.2554C39.7206 44.7863 38.3178 45.7365 37.3861 46.3669C36.4544 46.9974 34.6863 48.1947 33.457 49.0276C32.2277 49.8605 31.1848 50.5627 31.1396 50.588C31.0612 50.6318 31.0572 49.5088 31.0572 27.2988V3.96354L31.3278 3.98919C31.4766 4.00329 31.8313 4.03727 32.1159 4.06463ZM13.9176 41.9058C13.8852 41.9373 11.6248 43.4888 8.89444 45.3535L3.93017 48.7438L3.91634 38.9327C3.90241 29.0323 3.91375 28.1545 4.07369 26.7552C4.84256 20.0283 8.18707 13.8928 13.3882 9.66776L13.9528 9.20909L13.9646 25.5287C13.9741 38.5448 13.9646 41.86 13.9176 41.9058ZM45.5647 9.61102C47.6417 11.2994 49.4757 13.3351 50.9268 15.5629C51.467 16.392 52.0512 17.4087 52.0332 17.4879C52.0214 17.54 45.1154 22.6616 45.0571 22.6616C45.0435 22.6616 45.0325 19.6375 45.0325 15.9415C45.0325 12.2454 45.0443 9.2213 45.0589 9.2213C45.0734 9.2213 45.301 9.39669 45.5647 9.61102ZM53.5897 20.9224C54.1817 22.5804 54.5632 24.0944 54.8171 25.7924C54.9487 26.673 55.0152 27.3114 55.0773 28.2933C55.0966 28.5985 55.1076 30.8445 55.1034 33.596L55.1022 34.3792L53.1612 35.6929C46.6295 40.1136 45.0708 41.1657 45.0527 41.1657C45.0416 41.1657 45.0325 37.763 45.0325 33.6041V26.0425L49.138 23.1494C51.396 21.5582 53.2672 20.2544 53.2963 20.2521C53.3252 20.2499 53.4573 20.5515 53.5897 20.9224ZM27.9516 44.4732V52.7498L26.8105 53.5205C26.183 53.9445 25.3518 54.5076 24.9636 54.772C24.5754 55.0364 23.5061 55.7605 22.5874 56.3812C21.6686 57.0019 20.504 57.7901 19.9994 58.1326C19.4947 58.4753 18.6319 59.0575 18.082 59.4265L17.0821 60.0974L12.2472 60.0981C7.02694 60.099 7.08736 60.1016 6.38916 59.8455C5.2557 59.4297 4.35851 58.4196 4.03256 57.1921C3.93422 56.8219 3.93017 56.7174 3.93017 54.5588V52.311L15.6245 44.4549C22.0564 40.134 27.4453 36.5094 27.5999 36.4001C27.7545 36.2908 27.8969 36.2003 27.9163 36.199C27.9357 36.1976 27.9516 39.921 27.9516 44.4732ZM55.1044 47.3231C55.1043 53.6971 55.0886 56.6582 55.0538 56.8539C54.7672 58.4656 53.5908 59.6969 52.027 60.0218C51.6918 60.0914 50.3653 60.0983 37.4874 60.0978C29.6935 60.0974 23.0203 60.0968 22.658 60.0964L21.9993 60.0957L24.8696 58.1797C26.4483 57.1259 28.5814 55.7044 29.61 55.0208C35.1553 51.3352 53.989 38.7814 54.6988 38.2976C54.904 38.1578 55.0793 38.0508 55.0882 38.0598C55.0973 38.0688 55.1045 42.2374 55.1044 47.3231Z" fill="black"/>
</svg>
