<svg fill="none" height="40" viewBox="0 0 40 40" width="40" xmlns="http://www.w3.org/2000/svg" xmlns:xlink="http://www.w3.org/1999/xlink"><clipPath id="a"><rect height="32" rx="16" width="32"/></clipPath><rect fill="#f69988" height="40" rx="12" width="40"/><g transform="translate(4 4)"><circle cx="16" cy="16" fill="#fff" r="14"/><svg height="32" viewBox="0 0 32 32" width="32" xmlns="http://www.w3.org/2000/svg"><g clip-path="url(#a)"><path d="m-4 8c0-6.627 5.373-12 12-12h16c6.627 0 12 5.373 12 12v16c0 6.627-5.373 12-12 12h-16c-6.627 0-12-5.373-12-12z" fill="#f69988"/><g fill="#fff"><path clip-rule="evenodd" d="m21.872 13.315-5.864-9.237-5.865 9.237 5.864 3.439 5.865-3.44zm-5.864-6.846-4.07 6.409 4.07 2.386 4.069-2.386-4.07-6.41z" fill-rule="evenodd"/><path d="m9.196 14.794 6.804 3.99 6.804-3.99.186.293a8.382 8.382 0 0 1 -1.125 10.392 8.259 8.259 0 0 1 -11.729 0 8.382 8.382 0 0 1 -1.126-10.392z"/></g></g></svg></g></svg>