<svg fill="none" height="40" viewBox="0 0 40 40" width="40" xmlns="http://www.w3.org/2000/svg"><rect fill="#29abe2" height="40" rx="12" width="40"/><g transform="translate(4 4)"><circle cx="16" cy="16" fill="#fff" r="14"/><svg fill="none" height="32" viewBox="0 0 32 32" width="32" xmlns="http://www.w3.org/2000/svg"><path d="m16 32c8.8366 0 16-7.1634 16-16 0-8.83656-7.1634-16-16-16-8.83656 0-16 7.16344-16 16 0 8.8366 7.16344 16 16 16z" fill="#29abe2"/><path d="m16.0093 2c7.7414-.00467 14.1361 6.33222 13.9882 14.2817-.1409 7.5962-6.3993 13.8705-14.2995 13.7156-7.58804-.1487-13.8628-6.4093-13.6947-14.3187.16071-7.56508 6.34286-13.68249 14.006-13.6786zm-1.2059 25.9009.0483-.0603c-.0265-.0494-.0452-.1054-.081-.1471-.37-.4331-.7125-.8954-1.123-1.2865-.4242-.4043-.9032-.7546-1.3795-1.099-.5841-.4218-.6241-.8899-.0774-1.3433.1494-.1237.3175-.2253.4658-.3502.3981-.3351.5837-.6308.1253-1.1184-.2786-.2962-.1568-.6472.2338-.7682.1086-.0335.2215-.0533.3464-.0825-.1226-.0732-.2362-.1218-.3261-.1981-.2899-.2471-.2343-.602.1117-.7596.0587-.0269.1186-.0518.1755-.0825.5992-.33.9339-.9721.4346-1.68-.1031-.1463-.1848-.3136-.2479-.4817-.1373-.3658-.0603-.6238.258-.8476.179-.1257.3724-.2374.5721-.3277.8701-.3938 1.704-.8522 2.485-1.4005.2731-.1919.535-.4121.7599-.6577.2436-.2661.2794-.6051.0954-.9215-.1105-.1895-.2615-.3728-.4351-.5055-.765-.5833-.7218-1.4896.1074-1.9582.0055-.0031.0136-.0054.0164-.0101.0428-.0774.1214-.156.1206-.2335-.0023-.2459-.1794-.3522-.416-.4062.1187-.072.2238-.1211.3117-.1915.274-.2199.2837-.4401.0362-.6869-.1195-.1186-.2506-.2261-.365-.34902-.2335-.25022-.2284-.48838.0381-.6993.1915-.15138.4156-.26073.6195-.39732.1927-.12881.4012-.24594.5619-.40861.2654-.2689.2261-.5771-.0591-.82772-.5596-.49188-1.1406-.96314-1.6682-1.48771-.5709-.56738-1.2305-1.09428-1.3141-2.03486-3.9696.36541-7.09702 2.1481-9.29289 5.48116-2.48578 3.77358-2.55621 8.73798-.15254 12.63018 2.07252 3.356 5.12803 5.2064 9.01463 5.6968z" fill="#fff"/></svg></g></svg>