<svg fill="none" height="40" viewBox="0 0 40 40" width="40" xmlns="http://www.w3.org/2000/svg"><rect fill="#1d1d3c" height="40" rx="12" width="40"/><g transform="translate(4 4)"><circle cx="16" cy="16" fill="#fff" r="14"/><svg height="32" viewBox="0 0 32 32" width="32" xmlns="http://www.w3.org/2000/svg"><path d="m16 32c8.837 0 16-7.163 16-16s-7.163-16-16-16-16 7.163-16 16 7.163 16 16 16z" fill="#1d1d3c"/><g fill="#fff"><path d="m11 9h10v2.5h-5v6h5v2.5h-10zm10 13.5v.5h-10v-.5z"/><path clip-rule="evenodd" d="m16 30c7.732 0 14-6.268 14-14s-6.268-14-14-14-14 6.268-14 14 6.268 14 14 14zm0-.991c7.185 0 13.009-5.824 13.009-13.009s-5.824-13.009-13.009-13.009-13.009 5.824-13.009 13.009 5.824 13.009 13.009 13.009z" fill-rule="evenodd"/></g></svg></g></svg>