<svg class="brxe-svg" id="brxe-wwlcuh" viewBox="0 0 216 59" xml:space="preserve" style="fill-rule:evenodd;clip-rule:evenodd;stroke-linejoin:round;stroke-miterlimit:2" xmlns="http://www.w3.org/2000/svg">
  <path d="M0 0h28.628v107.63H0Zm0 107.63h28.628v107.63H0Zm0 107.63h28.628v107.631H0Zm0 107.631h28.628v107.63H0Zm0 107.63h28.628v107.63H0ZM28.628 0h28.628v107.63H28.628Zm28.628 0h28.628v107.63H57.256Zm0 107.63h28.628v107.63H57.256Zm0 107.63h28.628v107.631H57.256Zm-28.628 0h28.628v107.631H28.628ZM94.672 0H123.3v107.63H94.672Zm0 107.63H123.3v107.63H94.672Zm0 107.63H123.3v107.631H94.672Zm0 107.631H123.3v107.63H94.672Zm0 107.63H123.3v107.63H94.672Zm28.628 0h28.628v107.63H123.3ZM217.973 0h28.628v107.63h-28.628zm-28.628 0h28.628v107.63h-28.628zm-28.628 107.63h28.628v107.63h-28.628zm0 107.63h28.628v107.631h-28.628zm28.628 0h28.628v107.631h-28.628zm28.628 0h28.628v107.631h-28.628zm0 107.631h28.628v107.63h-28.628zm0 107.63h28.628v107.63h-28.628zm-28.628 0h28.628v107.63h-28.628zm-28.628 0h28.628v107.63h-28.628Zm0-430.521h28.628v107.63h-28.628zM255.389 0h28.628v107.63h-28.628zm28.628 0h28.628v107.63h-28.628zm28.628 107.63h28.628v107.63h-28.628zm0 215.261h28.628v107.63h-28.628zm-28.628 107.63h28.628v107.63h-28.628zm-28.628 0h28.628v107.63h-28.628Zm28.628-215.261h28.628v107.631h-28.628ZM312.645 0h28.628v107.63h-28.628zm0 430.521h28.628v107.63h-28.628zm0-215.261h28.628v107.631h-28.628zM407.317 0h28.628v107.63h-28.628ZM378.69 0h28.627v107.63H378.69Zm-28.628 0h28.628v107.63h-28.628zm0 107.63h28.628v107.63h-28.628zm0 107.63h28.628v107.631h-28.628zm0 107.631h28.628v107.63h-28.628zm0 107.63h28.628v107.63h-28.628zm28.628 0h28.627v107.63H378.69Zm28.627 0h28.628v107.63h-28.628zm0-107.63h28.628v107.63h-28.628zm0-107.631h28.628v107.631h-28.628zm-28.627 0h28.627v107.631H378.69ZM444.734 0h28.628v107.63h-28.628zm28.628 0h28.628v107.63h-28.628zm28.628 0h28.628v107.63H501.99Zm0 107.63h28.628v107.63H501.99Zm0 107.63h28.628v107.631H501.99Zm0 107.631h28.628v107.63H501.99Zm0 107.63h28.628v107.63H501.99Zm-28.628 0h28.628v107.63h-28.628zm-28.628 0h28.628v107.63h-28.628zm0-322.891h28.628v107.63h-28.628zm0 107.63h28.628v107.631h-28.628zm28.628 0h28.628v107.631h-28.628z" style="fill-rule:nonzero" transform="scale(.40647 .10963)"></path>
</svg>
