<svg height="24" viewBox="0 0 158 24" fill="none" xmlns="http://www.w3.org/2000/svg"><path d="M10.3934 0L0 6L10.3934 12V0Z" fill="#00FF7F"></path><path d="M20.7832 6L10.3934 0V12L20.7832 6Z" fill="#FBEC0D"></path><path d="M0 5.99998V18L10.3934 12L0 5.99998Z" fill="#4A9DFF"></path><path d="M10.3934 12L20.7832 18V5.99998L10.3934 12Z" fill="#FFB100"></path><path d="M10.3934 24L20.7832 18L10.3934 12V24Z" fill="#FF4500"></path><path d="M0 18L10.3934 24V12L0 18Z" fill="#A46BFF"></path><path fill-rule="evenodd" clip-rule="evenodd" d="M27.4372 1.88745V21.7856H31.1517V14.5984H35.2038L39.3128 21.7856H43.2797L38.8614 14.0616C41.3105 13.1303 42.7714 11.0474 42.7714 8.25712C42.7714 4.36849 39.9598 1.88745 35.6552 1.88745H27.4408H27.4372ZM39.0569 8.33887C39.0569 10.2548 37.7346 11.4668 35.6517 11.4668H31.1517V5.21091H35.6517C37.7346 5.21091 39.0569 6.423 39.0569 8.33887Z" fill="#1a1a2e"></path><path d="M82.0451 21.7856C78.9207 21.7856 77.4598 20.5735 77.4598 18.0107V9.38745H74.6482V6.65404H76.5605C77.2359 6.65404 77.6304 6.25949 77.6304 5.58414V2.70499L81.0072 2.42418V6.65049H84.5795V9.3839H81.0072V17.641C81.0072 18.5154 81.5688 18.9384 82.6956 18.9384H84.5795L84.2702 21.7856H82.0487H82.0451Z" fill="#1a1a2e"></path><path fill-rule="evenodd" clip-rule="evenodd" d="M84.8958 14.2038C84.8958 18.91 87.8212 22.0948 92.1826 22.0948C95.9788 22.0948 98.4847 20.3175 99.384 17.0794H95.7264C95.1932 18.4621 93.9812 19.2228 92.2643 19.2228C90.1814 19.2228 88.8022 17.7867 88.493 15.3341H99.3804C99.9136 9.86731 97.0736 6.31636 92.179 6.31636C87.8176 6.31636 84.8923 9.5012 84.8923 14.2074L84.8958 14.2038ZM95.9504 12.7927H88.5499C88.916 10.5391 90.2667 9.21328 92.2643 9.21328C94.262 9.21328 95.6127 10.4822 95.9504 12.7927Z" fill="#1a1a2e"></path><path d="M106.468 22.0948C102.668 22.0948 100.361 20.2642 100.194 17.0794H103.852C103.909 18.4621 104.922 19.2512 106.582 19.2512C108.242 19.2512 109.34 18.5758 109.34 17.5308C109.34 16.6848 108.779 16.1232 107.737 15.9526L104.67 15.4443C102.053 14.9929 100.617 13.4431 100.617 11.0758C100.617 8.14335 102.924 6.31279 106.553 6.31279C110.183 6.31279 112.347 8.20023 112.518 11.2464H108.974C108.889 9.97748 107.961 9.18838 106.5 9.18838C105.039 9.18838 104.165 9.8353 104.165 10.8519C104.165 11.6694 104.726 12.1777 105.768 12.3448L108.835 12.8531C111.48 13.3045 112.888 14.8258 112.888 17.1931C112.888 20.2358 110.438 22.0983 106.472 22.0983L106.468 22.0948Z" fill="#1a1a2e"></path><path d="M113.485 14.2037C113.485 18.8815 116.524 22.0947 120.967 22.0947C124.738 22.0947 127.493 19.6421 127.774 16.0627H124.312C124.002 17.9217 122.68 19.1338 120.963 19.1338C118.571 19.1338 117.053 17.2464 117.053 14.2002C117.053 11.154 118.543 9.29497 120.935 9.29497C122.68 9.29497 124.002 10.5071 124.312 12.3661H127.774C127.493 8.78667 124.735 6.30563 120.967 6.30563C116.52 6.30563 113.485 9.5189 113.485 14.1966V14.2037Z" fill="#1a1a2e"></path><path fill-rule="evenodd" clip-rule="evenodd" d="M133.461 22.0094C130.479 22.0094 128.51 20.1504 128.51 17.3033C128.51 14.9075 130.17 13.3009 132.981 12.9632L137.143 12.5118C137.933 12.3696 138.324 12.0035 138.324 11.2713C138.324 9.9739 137.339 9.1848 135.736 9.1848C134.133 9.1848 133.063 9.9739 132.896 11.2713H129.181C129.491 8.2002 132.021 6.30921 135.764 6.30921C139.507 6.30921 141.871 8.28196 141.871 11.609V21.782H138.327V19.667H138.185C137.424 21.0213 135.483 22.0059 133.457 22.0059L133.461 22.0094ZM134.474 19.1623C136.529 19.1623 138.327 17.4135 138.327 15.3021V14.6836C138.132 14.8258 137.876 14.9075 137.538 14.936L134.133 15.3305C132.953 15.4443 132.249 16.1481 132.249 17.1895C132.249 18.4016 133.12 19.1623 134.47 19.1623H134.474Z" fill="#1a1a2e"></path><path d="M143.655 21.7855V6.65044H147.199V8.87556H147.341C148.13 7.35423 150.014 6.30921 152.012 6.30921C155.218 6.30921 157.273 8.42414 157.273 11.7192V21.782H153.729V12.3981C153.729 10.6777 152.659 9.57935 150.97 9.57935C148.777 9.57935 147.199 11.2429 147.199 13.5817V21.782H143.655V21.7855Z" fill="#1a1a2e"></path><path d="M73.7525 21.7855V6.65041H70.2086V14.8506C70.2086 17.1895 68.634 18.853 66.4373 18.853C64.7489 18.853 63.679 17.7547 63.679 16.0343V6.65041H60.1351V16.7132C60.1351 20.0118 62.1897 22.1232 65.3958 22.1232C67.3934 22.1232 69.2773 21.0817 70.0664 19.5568H70.2086V21.7819H73.7525V21.7855Z" fill="#1a1a2e"></path><path fill-rule="evenodd" clip-rule="evenodd" d="M51.4337 22.0948C46.9622 22.0948 43.8946 18.8815 43.8946 14.2038C43.8946 9.52606 46.9622 6.31279 51.4337 6.31279C55.9053 6.31279 58.9728 9.52606 58.9728 14.2038C58.9728 18.8815 55.9053 22.0948 51.4337 22.0948ZM51.4337 19.1339C53.8828 19.1339 55.4006 17.2464 55.4006 14.2002C55.4006 11.154 53.8828 9.29501 51.4337 9.29501C48.9847 9.29501 47.4669 11.1825 47.4669 14.2002C47.4669 17.218 48.9847 19.1339 51.4337 19.1339Z" fill="#1a1a2e"></path></svg>
