<svg width="448" height="48" viewBox="0 0 448 48" fill="none" xmlns="http://www.w3.org/2000/svg">
<path d="M42.7881 1.81494H57.6596V10.1085C62.5319 2.65489 68.1389 1.81494 76.3469 1.81494V16.4714H72.6089C62.7733 16.4714 58.0645 21.0795 58.0645 30.2078V45.7869H42.7881V1.81494Z" fill="#0500FF"/>
<path d="M125.966 45.7844H110.692V41.5925C107.357 45.4459 102.811 47.1206 97.2069 47.1206C86.564 47.1206 80.5469 40.8378 80.5469 29.2827V1.8125H95.8207V25.8531C95.8207 31.2934 98.5022 34.4749 103.05 34.4749C107.598 34.4749 110.69 31.3735 110.69 26.1012V1.8125H125.963V45.7844H125.966Z" fill="#0500FF"/>
<path d="M129.698 32.211H144.004C144.655 35.3924 146.849 36.7312 152.126 36.7312C156.435 36.7312 158.953 35.7284 158.953 33.8857C158.953 32.4591 157.733 31.5364 154.244 30.7843L142.706 28.187C134.986 26.4321 131.084 21.992 131.084 14.8693C131.084 5.4851 137.989 0.628906 151.397 0.628906C164.804 0.628906 171.385 5.36104 172.527 15.4999H158.309C158.068 12.8224 155.301 11.1838 150.753 11.1838C147.098 11.1838 144.746 12.3546 144.746 14.1172C144.746 15.6239 146.286 16.7947 149.38 17.5545L161.484 20.4879C169.446 22.4107 173.269 26.4347 173.269 32.9656C173.269 42.0138 165.386 47.374 151.986 47.374C138.586 47.374 129.722 41.5951 129.722 32.211H129.706H129.698Z" fill="#0500FF"/>
<path d="M213.943 15.4894V1.8125H176.241V15.4972H187.492V45.7844H202.687V15.4894H213.943Z" fill="#0500FF"/>
<path d="M38.5361 15.4894V1.8125H0.836914V15.4972H12.0872V45.7844H27.2858V15.4894H38.5361Z" fill="#0500FF"/>
<path d="M236.933 45L225.2 2.09091H230.48L239.448 37.0384H239.867L249.002 2.09091H254.868L264.003 37.0384H264.422L273.389 2.09091H278.669L266.936 45H261.573L252.102 10.8068H251.767L242.297 45H236.933ZM281.791 45H276.344L292.1 2.09091H297.463L313.219 45H307.772L303.455 32.848H286.107L281.791 45ZM287.742 28.2386H301.821L294.949 8.87926H294.614L287.742 28.2386ZM318.133 45V2.09091H323.329V40.3906H343.275V45H318.133ZM349.55 45V2.09091H354.746V40.3906H374.692V45H349.55ZM380.968 45V2.09091H406.864V6.70028H386.164V21.1989H405.523V25.8082H386.164V40.3906H407.199V45H380.968ZM412.113 6.70028V2.09091H444.295V6.70028H430.802V45H425.606V6.70028H412.113Z" fill="#0500FF"/>
</svg>
