<svg width="447" height="48" viewBox="0 0 447 48" fill="none" xmlns="http://www.w3.org/2000/svg">
<path d="M42.707 1.83105H57.6015V10.1246C62.4814 2.671 68.0971 1.83105 76.3178 1.83105V16.4875H72.574C62.7232 16.4875 58.0071 21.0956 58.0071 30.2239V45.803H42.707V1.83105Z" fill="#1B1B1C"/>
<path d="M126.013 45.803H110.715V41.611C107.375 45.4644 102.822 47.1392 97.2092 47.1392C86.5499 47.1392 80.5234 40.8563 80.5234 29.3012V1.83105H95.8209V25.8717C95.8209 31.3119 98.5065 34.4934 103.061 34.4934C107.616 34.4934 110.713 31.3921 110.713 26.1198V1.83105H126.01V45.803H126.013Z" fill="#1B1B1C"/>
<path d="M129.751 32.2276H144.079C144.731 35.409 146.928 36.7478 152.214 36.7478C156.529 36.7478 159.051 35.745 159.051 33.9023C159.051 32.4757 157.829 31.553 154.335 30.8009L142.779 28.2036C135.047 26.4487 131.139 22.0086 131.139 14.8859C131.139 5.5017 138.055 0.645508 151.483 0.645508C164.911 0.645508 171.502 5.37765 172.646 15.5165H158.406C158.165 12.839 155.393 11.2004 150.838 11.2004C147.178 11.2004 144.822 12.3712 144.822 14.1338C144.822 15.6405 146.364 16.8113 149.463 17.5711L161.586 20.5045C169.56 22.4273 173.389 26.4513 173.389 32.9822C173.389 42.0304 165.494 47.3906 152.073 47.3906C138.653 47.3906 129.774 41.6117 129.774 32.2276H129.759H129.751Z" fill="#1B1B1C"/>
<path d="M214.126 15.508V1.83105H176.366V15.5158H187.634V45.803H202.853V15.508H214.126Z" fill="#1B1B1C"/>
<path d="M38.4479 15.508V1.83105H0.69043V15.5158H11.9581V45.803H27.1802V15.508H38.4479Z" fill="#1B1B1C"/>
<path d="M235.933 44.9697L224.2 2.06063H229.48L238.448 37.0081H238.867L248.002 2.06063H253.868L263.003 37.0081H263.422L272.389 2.06063H277.669L265.936 44.9697H260.573L251.102 10.7765H250.767L241.297 44.9697H235.933ZM280.791 44.9697H275.344L291.1 2.06063H296.463L312.219 44.9697H306.772L302.455 32.8177H285.107L280.791 44.9697ZM286.742 28.2084H300.821L293.949 8.84899H293.614L286.742 28.2084ZM317.133 44.9697V2.06063H322.329V40.3604H342.275V44.9697H317.133ZM348.55 44.9697V2.06063H353.746V40.3604H373.692V44.9697H348.55ZM379.968 44.9697V2.06063H405.864V6.67001H385.164V21.1686H404.523V25.778H385.164V40.3604H406.199V44.9697H379.968ZM411.113 6.67001V2.06063H443.295V6.67001H429.802V44.9697H424.606V6.67001H411.113Z" fill="#1B1B1C"/>
</svg>
