<svg width="447" height="47" viewBox="0 0 447 47" fill="none" xmlns="http://www.w3.org/2000/svg">
<path d="M42.707 1.18848H57.6015V9.482C62.4814 2.02843 68.0971 1.18848 76.3178 1.18848V15.8449H72.574C62.7232 15.8449 58.0071 20.453 58.0071 29.5813V45.1604H42.707V1.18848Z" fill="#48FF91"/>
<path d="M126.013 45.1604H110.715V40.9684C107.375 44.8219 102.822 46.4966 97.2092 46.4966C86.5499 46.4966 80.5234 40.2138 80.5234 28.6587V1.18848H95.8209V25.2291C95.8209 30.6694 98.5065 33.8508 103.061 33.8508C107.616 33.8508 110.713 30.7495 110.713 25.4772V1.18848H126.01V45.1604H126.013Z" fill="#48FF91"/>
<path d="M129.751 31.585H144.079C144.731 34.7665 146.928 36.1052 152.214 36.1052C156.529 36.1052 159.051 35.1024 159.051 33.2597C159.051 31.8331 157.829 30.9104 154.335 30.1584L142.779 27.561C135.047 25.8061 131.139 21.366 131.139 14.2433C131.139 4.85912 138.055 0.00292969 151.483 0.00292969C164.911 0.00292969 171.502 4.73507 172.646 14.8739H158.406C158.165 12.1964 155.393 10.5578 150.838 10.5578C147.178 10.5578 144.822 11.7286 144.822 13.4912C144.822 14.9979 146.364 16.1687 149.463 16.9285L161.586 19.8619C169.56 21.7847 173.389 25.8087 173.389 32.3397C173.389 41.3878 165.494 46.748 152.073 46.748C138.653 46.748 129.774 40.9692 129.774 31.585H129.759H129.751Z" fill="#48FF91"/>
<path d="M214.126 14.8654V1.18848H176.366V14.8732H187.634V45.1604H202.853V14.8654H214.126Z" fill="#48FF91"/>
<path d="M38.4479 14.8654V1.18848H0.69043V14.8732H11.9581V45.1604H27.1802V14.8654H38.4479Z" fill="#48FF91"/>
<path d="M235.933 44.3271L224.2 1.41806H229.48L238.448 36.3655H238.867L248.002 1.41806H253.868L263.003 36.3655H263.422L272.389 1.41806H277.669L265.936 44.3271H260.573L251.102 10.134H250.767L241.297 44.3271H235.933ZM280.791 44.3271H275.344L291.1 1.41806H296.463L312.219 44.3271H306.772L302.455 32.1752H285.107L280.791 44.3271ZM286.742 27.5658H300.821L293.949 8.20641H293.614L286.742 27.5658ZM317.133 44.3271V1.41806H322.329V39.7178H342.275V44.3271H317.133ZM348.55 44.3271V1.41806H353.746V39.7178H373.692V44.3271H348.55ZM379.968 44.3271V1.41806H405.864V6.02743H385.164V20.526H404.523V25.1354H385.164V39.7178H406.199V44.3271H379.968ZM411.113 6.02743V1.41806H443.295V6.02743H429.802V44.3271H424.606V6.02743H411.113Z" fill="#48FF91"/>
</svg>
