<?xml version="1.0" encoding="UTF-8"?>
<svg version="1.1" xmlns="http://www.w3.org/2000/svg" width="200" height="200">
<path d="M0 0 C18.94117633 15.97740763 32.74939967 38.83762192 35.4375 63.75 C37.58547278 94.94025688 31.236838 120.91505546 10.87109375 145.05859375 C-5.70446543 163.39015117 -28.90857263 176.25876359 -53.80273438 177.97314453 C-85.17396919 179.3716107 -110.9524728 172.09839905 -134.5625 150.75 C-153.68923272 132.14098335 -164.3546023 108.02583084 -165.03320312 81.41601562 C-165.27144065 51.60455952 -156.06340132 26.76560955 -135.03515625 5.15234375 C-97.49103665 -30.51732641 -40.30425919 -31.63546601 0 0 Z " fill="#000100" transform="translate(164.5625,22.25)"/>
<path d="M0 0 C0.02312143 12.499571 0.04091406 24.99913695 0.05181217 37.49872494 C0.05704144 43.30213613 0.06413987 49.10553275 0.07543945 54.90893555 C0.08626678 60.50450853 0.0922765 66.10006745 0.09487724 71.6956501 C0.09673177 73.83558944 0.10035291 75.97552796 0.10573006 78.11546135 C0.11293844 81.10164966 0.11399103 84.08777907 0.11352539 87.07397461 C0.11712067 87.96805023 0.12071594 88.86212585 0.12442017 89.78329468 C0.11405216 95.88594784 0.11405216 95.88594784 -1 97 C-3.6773138 97.09981214 -6.32304175 97.13879875 -9 97.125 C-10.12535156 97.13080078 -10.12535156 97.13080078 -11.2734375 97.13671875 C-16.87338947 97.12661053 -16.87338947 97.12661053 -18 96 C-18.16402198 93.65197001 -18.26334402 91.33170739 -18.31982422 88.98022461 C-18.34085205 88.24500076 -18.36187988 87.50977692 -18.38354492 86.75227356 C-18.56762267 79.91508737 -18.67292797 73.0761419 -18.75568962 66.23705196 C-18.81200715 61.6486773 -18.8928384 57.06386144 -19.03564453 52.47729492 C-20.1094062 17.14616378 -20.1094062 17.14616378 -11.6328125 7.62890625 C-4.04628727 0 -4.04628727 0 0 0 Z " fill="#36BB18" transform="translate(170,64)"/>
<path d="M0 0 C0.02312465 9.63112712 0.04091571 19.26224474 0.05181217 28.89339352 C0.05704074 33.36505549 0.06413789 37.83669853 0.07543945 42.30834961 C0.08626929 46.62011973 0.09227704 50.93187159 0.09487724 55.24365425 C0.09673132 56.89236298 0.1003516 58.54107066 0.10573006 60.18977165 C0.11294178 62.49103872 0.11399089 64.7922294 0.11352539 67.09350586 C0.115746 68.4058873 0.11796661 69.71826874 0.12025452 71.07041931 C0 74 0 74 -1 75 C-3.6773138 75.09981214 -6.32304175 75.13879875 -9 75.125 C-10.12535156 75.13080078 -10.12535156 75.13080078 -11.2734375 75.13671875 C-16.87338947 75.12661053 -16.87338947 75.12661053 -18 74 C-18.09417773 71.91380978 -18.11742878 69.82439523 -18.11352539 67.73608398 C-18.11367142 67.08244873 -18.11381744 66.42881348 -18.1139679 65.75537109 C-18.11326883 63.58557872 -18.10547678 61.41587121 -18.09765625 59.24609375 C-18.09579205 57.74536689 -18.09436816 56.24463943 -18.09336853 54.74391174 C-18.08954352 50.78681774 -18.0797134 46.82976022 -18.06866455 42.87268066 C-18.05845006 38.83765151 -18.05387083 34.80261647 -18.04882812 30.76757812 C-18.03809111 22.84503531 -18.0210149 14.92252219 -18 7 C-17.02417969 6.66226563 -16.04835937 6.32453125 -15.04296875 5.9765625 C-13.75773537 5.52626175 -12.47258335 5.07572874 -11.1875 4.625 C-10.54490234 4.40328125 -9.90230469 4.1815625 -9.24023438 3.953125 C-6.53052531 2.99840885 -2.55915136 0 0 0 Z " fill="#35BA18" transform="translate(148,86)"/>
<path d="M0 0 C0.42279559 3.065268 0.68928694 5.04360525 0 8 C-1.74434428 9.8033976 -3.61335639 11.01127162 -5.71484375 12.37890625 C-10.5188971 15.78690991 -14.06854324 20.67725674 -17.8125 25.1796875 C-25.24246806 33.96960508 -31.98254708 37.43815358 -43.390625 39.4140625 C-50.86401099 40.74672923 -56.7577444 43.88575612 -61.25 50.125 C-62.32392308 52.29681766 -63.1920643 54.49922597 -64.0625 56.76171875 C-67.94709252 66.7415436 -73.51967935 76.24188691 -83.44140625 81.2265625 C-86.34404274 82.10400071 -88.91023758 82.27370164 -91.9375 82.375 C-97.27160774 82.72273396 -99.90512103 83.65944084 -104 87 C-104.66 87 -105.32 87 -106 87 C-106 83.7 -106 80.4 -106 77 C-101.7847528 74.22998041 -98.67481832 73.86143618 -93.625 73.75 C-87.88420776 73.39079229 -84.73169179 72.4113773 -80.703125 68.28125 C-77.41483114 63.8767463 -75.2270464 59.0013099 -73 54 C-67.99579434 43.1825255 -67.99579434 43.1825255 -63 39 C-62.43667969 38.49726562 -61.87335938 37.99453125 -61.29296875 37.4765625 C-54.04339861 31.42294996 -45.52058734 30.07180153 -36.38671875 28.72265625 C-29.92538873 26.76627973 -26.37436378 22.33005669 -22.5625 17.125 C-9.56838576 0 -9.56838576 0 0 0 Z " fill="#35B718" transform="translate(170,49)"/>
<path d="M0 0 C0 22.11 0 44.22 0 67 C-5.61 67 -11.22 67 -17 67 C-17.12420407 59.91998591 -17.21462658 52.84061519 -17.2746582 45.75976562 C-17.29970084 43.3543797 -17.333745 40.94906911 -17.37719727 38.54394531 C-17.4382988 35.07337794 -17.46631363 31.60382228 -17.48828125 28.1328125 C-17.51408768 27.06886261 -17.5398941 26.00491272 -17.56648254 24.90872192 C-17.569196 17.5778415 -16.0837195 12.14303983 -12 6 C-9.375 3.5 -9.375 3.5 -7 2 C-4 0 -4 0 0 0 Z " fill="#36BD18" transform="translate(126,94)"/>
<path d="M0 0 C3.3 0 6.6 0 10 0 C10 26.73 10 53.46 10 81 C6.7 81 3.4 81 0 81 C0 54.27 0 27.54 0 0 Z " fill="#36BD18" transform="translate(51,80)"/>
<path d="M0 0 C0.33 0 0.66 0 1 0 C1.02464705 5.67830078 1.04283462 11.35657069 1.05493164 17.03491211 C1.05997256 18.96818585 1.06680519 20.90145576 1.07543945 22.8347168 C1.08751565 25.60726872 1.09323057 28.37977041 1.09765625 31.15234375 C1.10281754 32.02213364 1.10797882 32.89192352 1.11329651 33.78807068 C1.11349185 35.85905814 1.06208168 37.92994324 1 40 C0 41 0 41 -3.81640625 41.09765625 C-5.39846682 41.09098089 -6.98051159 41.07901875 -8.5625 41.0625 C-9.36880859 41.05798828 -10.17511719 41.05347656 -11.00585938 41.04882812 C-13.00393756 41.03700518 -15.00197783 41.01906914 -17 41 C-17.26221814 36.79285562 -17.42147604 32.58781109 -17.5625 28.375 C-17.63791016 27.18519531 -17.71332031 25.99539062 -17.79101562 24.76953125 C-18.00964532 16.07292793 -18.00964532 16.07292793 -15.11474609 12.99658203 C-12.80296051 11.50543029 -10.44172254 10.26249796 -8 9 C-5.43484782 6.56294491 -5.43484782 6.56294491 -3.5 4.125 C-2.34693369 2.73857503 -1.18445538 1.35970643 0 0 Z " fill="#35B718" transform="translate(104,120)"/>
<path d="M0 0 C7.92 0 15.84 0 24 0 C24.70476368 9.33811877 24.70476368 9.33811877 24 14 C22.1162006 16.17880154 20.34019551 17.28028614 17.84765625 18.69140625 C15.86071237 19.84630563 15.86071237 19.84630563 15.24609375 21.90234375 C14.93552454 24.06050256 14.93552454 24.06050256 15 27 C13.02 27 11.04 27 9 27 C9 25.989375 9 24.97875 9 23.9375 C8.65531942 21.18552648 8.30087944 20.25507961 6.15234375 18.43359375 C5.42144531 17.91925781 4.69054688 17.40492187 3.9375 16.875 C0.87957768 14.50388376 0.08864561 13.56010894 -0.52734375 9.66796875 C-0.50286761 6.44061484 -0.26528048 3.21652586 0 0 Z " fill="#36BC18" transform="translate(44,39)"/>
<path d="M0 0 C0 8.25 0 16.5 0 25 C-5.61 25 -11.22 25 -17 25 C-18.35936909 8.04984227 -18.35936909 8.04984227 -15.27734375 3.40234375 C-9.88630674 -0.36121039 -7.00727639 0 0 0 Z " fill="#36BB18" transform="translate(82,136)"/>
<path d="M0 0 C5.61 0 11.22 0 17 0 C17 2.97 17 5.94 17 9 C11.39 9 5.78 9 0 9 C0 6.03 0 3.06 0 0 Z " fill="#33B017" transform="translate(47,68)"/>
<path d="M0 0 C5.28 0 10.56 0 16 0 C16 2.97 16 5.94 16 9 C10.72 9 5.44 9 0 9 C0 6.03 0 3.06 0 0 Z " fill="#36BC18" transform="translate(25,41)"/>
<path d="M0 0 C5.28 0 10.56 0 16 0 C16 2.64 16 5.28 16 8 C15 9 15 9 11.62109375 9.09765625 C10.22652923 9.09098369 8.83198257 9.07902532 7.4375 9.0625 C6.37112305 9.05573242 6.37112305 9.05573242 5.28320312 9.04882812 C3.52209987 9.03700864 1.76103964 9.01907263 0 9 C0 6.03 0 3.06 0 0 Z " fill="#35B918" transform="translate(72,42)"/>
</svg>
